<?xml version="1.0" encoding="UTF-8"?>
<svg xmlns="http://www.w3.org/2000/svg" version="1.1" xmlns:xlink="http://www.w3.org/1999/xlink" viewBox="0 0 957.9 291.3">
  <defs>
    <linearGradient id="linear-gradient" x1="91.7" y1="155.8" x2="639.9" y2="274.2" gradientUnits="userSpaceOnUse">
      <stop offset="0" stop-color="#2572b4"/>
      <stop offset="1" stop-color="#2572b4" stop-opacity=".4"/>
    </linearGradient>
  </defs>
  <!-- Generator: Adobe Illustrator 28.6.0, SVG Export Plug-In . SVG Version: 1.2.0 Build 709)  -->
  <g>
    <g id="Layer_1">
      <path d="M14.1,291.3H0L-.2,65.2C54.2,31.3,119.9,14.6,183.5,21.8c40.1,4.5,80.8,18.1,113.1,42.5,32,24.1,54.7,61.9,95.8,72.3,24.3,6.1,49.8.5,74.7-2.6,107.8-13.5,220.8,22.6,300.8,96.1,27.1,24.9,39.6,44,40.2,61.2H14.1" fill="url(#linear-gradient)" opacity=".2"/>
      <g opacity=".6">
        <path d="M947.1,291.3h-1.9c-60.1-110.7-128-176.1-212.9-204.9-77.2-26.2-173.2-6.4-239,49.4-8,6.7-15.9,14-23.5,21-20.1,18.4-40.8,37.4-65.4,50.1-35.3,18.3-75.9,17.8-114.6,14.6-51.5-4.3-106.4-7.1-161.9,10.4-39.7,12.5-78.6,33.1-112.5,59.4h-2.7c34.4-27.1,74.1-48.2,114.7-61,55.8-17.6,110.9-14.8,162.6-10.5,38.4,3.2,78.7,3.7,113.7-14.4,24.3-12.6,45-31.5,65-49.9,7.7-7,15.6-14.3,23.6-21,32.2-27.2,71.7-46.5,114.2-55.6,43.6-9.4,87.4-7.3,126.4,5.9,46.9,15.9,88.2,42.8,126.2,82.1,31.4,32.4,60.3,73.3,88,124.4Z" fill="#2572b4"/>
      </g>
      <circle cx="152.3" cy="224.5" r="8.7" fill="#2572b4"/>
      <circle cx="676" cy="73.9" r="8.7" fill="#92b9da"/>
      <circle cx="244.6" cy="217.5" r="4" fill="#92b9da"/>
      <circle cx="497.3" cy="131.4" r="4" fill="#2572b4"/>
      <circle cx="905.1" cy="224.5" r="4" fill="#2572b4"/>
      <circle cx="585.3" cy="85.2" r="4" fill="#92b9da"/>
    </g>
  </g>
</svg>