<?xml version="1.0" encoding="UTF-8"?>
<svg xmlns="http://www.w3.org/2000/svg" version="1.1" xmlns:xlink="http://www.w3.org/1999/xlink" viewBox="0 0 661.8 344">
  <defs>
    <linearGradient id="linear-gradient" x1="515.8" y1="292.2" x2="325.8" y2="-120.4" gradientUnits="userSpaceOnUse">
      <stop offset="0" stop-color="#2572b4"/>
      <stop offset="1" stop-color="#2572b4" stop-opacity=".4"/>
    </linearGradient>
  </defs>
  <!-- Generator: Adobe Illustrator 28.6.0, SVG Export Plug-In . SVG Version: 1.2.0 Build 709)  -->
  <g>
    <g id="Layer_1">
      <path d="M661.9,314c-10.5.5-21.1.5-31.6.2-33.8-.9-68.6-4.9-98-21.5-56.1-31.6-79.3-100-125-145.4C337,77.2,225.8,71.3,139.4,22.4c-10.9-6.2-24.9-13.6-38.8-22.3h561.3s0,313.9,0,313.9Z" fill="url(#linear-gradient)" opacity=".2"/>
      <path d="M28.5,0c23.6,40.3,51.1,78.1,84.5,110.4,44.8,43.3,101.4,76.1,163,85.4,39.3,5.9,80.5,1.6,117.4-13.6,41.3-17,69.9-50.3,106.3-74.8,35.3-23.8,75.4-40.5,117.2-48.3,15.3-2.8,30.7-4.5,46.1-5.6" fill="none" opacity=".6" stroke="#2572b4" stroke-miterlimit="10" stroke-width="1.6"/>
      <circle cx="546.2" cy="83.3" r="8.7" fill="#2572b4"/>
      <circle cx="70.5" cy="63.6" r="8.7" fill="#92b9da"/>
      <circle cx="293.5" cy="198.4" r="4" fill="#2572b4"/>
      <circle cx="127.4" cy="125" r="4" fill="#2572b4"/>
      <circle cx="596.1" cy="63.6" r="4" fill="#2572b4"/>
    </g>
  </g>
</svg>